/* XPM */
static char *_7a1141b686443d794878f3016f4b17fIqZh5mLfLVdsTYW6[] = {
/* columns rows colors chars-per-pixel */
"40 40 2 1 ",
"  c None",
". c black",
/* pixels */
"                   ..                   ",
"                   ..                   ",
"                   ..                   ",
"                ........                ",
"             ..............             ",
"           ....    ..    ....           ",
"          ...      ..      ...          ",
"         ..        ..        ..         ",
"        ..         ..         ..        ",
"       ..          ..          ..       ",
"      ..           ..           ..      ",
"     ..            ..            ..     ",
"     ..                          ..     ",
"    ..                            ..    ",
"    ..                            ..    ",
"    .                              .    ",
"   ..                              ..   ",
"   ..                              ..   ",
"   ..                              ..   ",
"............                ............",
"............                ............",
"   ..                              ..   ",
"   ..                              ..   ",
"   ..                              ..   ",
"    .                              .    ",
"    ..                            ..    ",
"    ..                            ..    ",
"     ..                          ..     ",
"     ..            ..            ..     ",
"      ..           ..           ..      ",
"       ..          ..          ..       ",
"        ..         ..         ..        ",
"         ..        ..        ..         ",
"          ...      ..      ...          ",
"           ....    ..    ....           ",
"             ..............             ",
"                ........                ",
"                   ..                   ",
"                   ..                   ",
"                   ..                   "
};
