/* XPM */
static char *c2e50971c4844408b1628a3a601be171fZC37mBuGBPxFGf0[] = {
/* columns rows colors chars-per-pixel */
"20 20 32 1 ",
"  c None",
". c #B30909",
"X c #B30B0B",
"o c #B40909",
"O c #B60808",
"+ c #B60909",
"@ c #B40B0B",
"# c #B10D0D",
"$ c #B20C0C",
"% c #B30D0D",
"& c #B00E0C",
"* c #B00F0D",
"= c #B20E0D",
"- c #B20F0D",
"; c #B30F0F",
": c #B40D0C",
"> c #B80808",
", c #B0100E",
"< c #AE1311",
"1 c #AF1311",
"2 c #AF1412",
"3 c #AD1414",
"4 c #A91D1C",
"5 c #A91E1C",
"6 c #B11110",
"7 c #B01211",
"8 c #B01312",
"9 c #B01411",
"0 c #B01614",
"q c #A62220",
"w c #A62322",
"e c #A52521",
/* pixels */
"                    ",
"                    ",
"                    ",
"                    ",
"                    ",
"       =    =       ",
"             X      ",
"         44   ,     ",
"    +       q  ,    ",
"    <          8    ",
"  +>+++=    089:28  ",
"    =          3    ",
"    =  e    q  =    ",
"                    ",
"     +        =     ",
"      X     <       ",
"         ==         ",
"                    ",
"                    ",
"                    "
};
