/* XPM */
static char *ce9c9e9ff57e45e9bbfecd754dff820bM3EqHUgH1DCdHbow[] = {
/* columns rows colors chars-per-pixel */
"64 64 255 2 ",
"   c #040402",
".  c #0C0C0C",
"X  c #090706",
"o  c #130202",
"O  c #1C0402",
"+  c #130B0B",
"@  c #190B07",
"#  c #081208",
"$  c #18150A",
"%  c #090C13",
"&  c #170C13",
"*  c #0B1515",
"=  c #1C1313",
"-  c #1C1C1B",
";  c #161816",
":  c #270A08",
">  c #360907",
",  c #271606",
"<  c #361804",
"1  c #271816",
"2  c #371A18",
"3  c #310C13",
"4  c #1B241B",
"5  c #122011",
"6  c #382607",
"7  c #28261A",
"8  c #362719",
"9  c #2F2C0F",
"0  c #171C23",
"q  c #281C23",
"w  c #341E23",
"e  c #1C2726",
"r  c #1E2E34",
"t  c #282826",
"y  c #372927",
"u  c #28342A",
"i  c #37342B",
"p  c #372D33",
"a  c #2A3637",
"s  c #373836",
"d  c #282B34",
"f  c #460805",
"g  c #451704",
"h  c #461817",
"j  c #561210",
"k  c #6A0908",
"l  c #750202",
"z  c #7C0202",
"x  c #7B0909",
"c  c #741615",
"v  c #552A00",
"b  c #4A261E",
"n  c #55251B",
"m  c #4F350D",
"M  c #6B2D12",
"N  c #4F1D22",
"B  c #482726",
"V  c #572625",
"C  c #45342B",
"Z  c #57352B",
"A  c #483B36",
"S  c #573735",
"D  c #502E32",
"F  c #642927",
"G  c #673A36",
"H  c #71352D",
"J  c #3A443B",
"K  c #2D4337",
"L  c #5B4312",
"P  c #6B4B12",
"I  c #46453B",
"U  c #58443C",
"Y  c #584724",
"T  c #745A29",
"R  c #674933",
"E  c #685536",
"W  c #754E34",
"Q  c #766438",
"!  c #2B3C44",
"~  c #383D46",
"^  c #4B3D42",
"/  c #723F43",
"(  c #3A4648",
")  c #394A56",
"_  c #34484E",
"`  c #474746",
"'  c #574846",
"]  c #4A5548",
"[  c #56544B",
"{  c #474C56",
"}  c #575A57",
"|  c #505255",
" . c #764845",
".. c #6A5748",
"X. c #665B59",
"o. c #785A56",
"O. c #705247",
"+. c #596459",
"@. c #65655A",
"#. c #776A52",
"$. c #4B5866",
"%. c #586669",
"&. c #526974",
"*. c #686867",
"=. c #786765",
"-. c #777775",
";. c #71746C",
":. c #6A5F63",
">. c #840303",
",. c #8C0303",
"<. c #890707",
"1. c #920303",
"2. c #9B0303",
"3. c #970909",
"4. c #921513",
"5. c #A50403",
"6. c #AB0402",
"7. c #AA0908",
"8. c #B30302",
"9. c #BB0302",
"0. c #B70A07",
"q. c #B8150A",
"w. c #A71515",
"e. c #B91616",
"r. c #AD0E10",
"t. c #A92317",
"y. c #B21E22",
"u. c #8E362F",
"i. c #B32D2A",
"p. c #94251E",
"a. c #C40909",
"s. c #C6120D",
"d. c #C41716",
"f. c #CB0C15",
"g. c #C33730",
"h. c #C9211E",
"j. c #8F4C34",
"k. c #8B723C",
"l. c #A26530",
"z. c #D34637",
"x. c #89574C",
"c. c #8D5751",
"v. c #AA594F",
"b. c #8B7956",
"n. c #917150",
"m. c #AC6C55",
"M. c #976866",
"N. c #857B78",
"B. c #8E756D",
"V. c #AA736C",
"C. c #C5554D",
"Z. c #D0756C",
"A. c #D87056",
"S. c #7A8278",
"D. c #9A8637",
"F. c #978454",
"G. c #B59859",
"H. c #AE8953",
"J. c #87857C",
"K. c #958B70",
"L. c #B08C6F",
"P. c #B9A76E",
"I. c #BCA150",
"U. c #CB9853",
"Y. c #D0A45A",
"T. c #CA946E",
"R. c #D7B678",
"E. c #CEAD6F",
"W. c #E6B073",
"Q. c #EC866C",
"!. c #EDD078",
"~. c #D8C66B",
"^. c #C0863C",
"/. c #727B84",
"(. c #5F7487",
"). c #887D82",
"_. c #77888D",
"`. c #7E9CA6",
"'. c #868785",
"]. c #978B8B",
"[. c #969689",
"{. c #989795",
"}. c #8D9591",
"|. c #A29D96",
" X c #AC8E87",
".X c #9AA396",
"XX c #A7A498",
"oX c #BAA793",
"OX c #A49CA2",
"+X c #94AAB3",
"@X c #ABA9A7",
"#X c #BAB8B5",
"$X c #B1B2AD",
"%X c #979DA7",
"&X c #CF938A",
"*X c #CFB28F",
"=X c #ECB38E",
"-X c #C7B6B4",
";X c #EDB9AE",
":X c #DE9394",
">X c #BDC2B6",
",X c #DAC787",
"<X c #D3C795",
"1X c #E7C785",
"2X c #EAD687",
"3X c #F6D58A",
"4X c #E6D797",
"5X c #F8D997",
"6X c #F2C48E",
"7X c #F7E79B",
"8X c #F6E58E",
"9X c #D0C9B1",
"0X c #EAD9A7",
"qX c #F7DAA3",
"wX c #F2D5B2",
"eX c #FAE5A7",
"rX c #FBE9B6",
"tX c #F6EEB0",
"yX c #ADBBC4",
"uX c #C3BBC1",
"iX c #B8CBCF",
"pX c #C8CAC6",
"aX c #CCD2C8",
"sX c #CAD4D4",
"dX c #D8D8D7",
"fX c #D6CFCB",
"gX c #FED8C8",
"hX c #E5DAD7",
"jX c #F0CFCF",
"kX c #EBE5D4",
"lX c #EEEAD6",
"zX c #EDEBDB",
"xX c #E8E6DA",
"cX c #F3EDDC",
"vX c #FBECDC",
"bX c #F5E7D7",
"nX c #F5F1DE",
"mX c #FAF2DD",
"MX c #FBF1D3",
"NX c #F4E9CB",
"BX c #CFDAE2",
"VX c #EDECE2",
"CX c #E9EAE7",
"ZX c #F4EDE2",
"AX c #F9EDE6",
"SX c #EEF2E6",
"DX c #F6F1E2",
"FX c #F9F3E3",
"GX c #F5F4EB",
"HX c #FBF4EA",
"JX c #FDFAEB",
"KX c #F7F9E8",
"LX c #F9F8F3",
"PX c #F0F1F7",
"IX c #DEE2DF",
/* pixels */
">.z >.<.<.z z z >.<.1.2.5.7.5.5.5.6.5.7.4.=XgXhXZXZXZXCXsXBXBXIXBXCXCXCXCXVXbXbXZXbXcXZXAXVXZXVXlXzXZXcXlXlXkXlXcXlXlXlXlXlXcXlX",
">.z ,.,.<.>.z z z <.1.2.5.5.5.5.5.6.8.7.7.u.gXxXAXCXdXpXBXBXBXIXBXsXBXBXfXdXhXVXcXZXZXlXZXVXcXZXZXcXcXkXlXnXlXlXlXMXlXlXlXcXcXMX",
">.>.>.,.,.<.>.>.z <.,.2.5.6.6.6.9.9.8.8.q.4.m.AXdXsXsXiXyXiXyXyXyX+XBXiXiXsXpXCXzXVXFXcXZXmXcXcXDXcXcXkXlXlXkXkXkXlXlXlXlXlXlXlX",
"z z >.,.,.>.>.z z <.<.3.5.6.8.8.8.a.a.9.6.r.4.&XfXiX+X`.`.+X(.(.$.) +X(.iXyX$XpXSXSXVXnXbXcXcXcXkXlXcXcXcXcXcXcXlXnXlXlXcXcXlXnX",
"l z >.<.1.,.>.>.z <.,.2.5.6.8.9.0.9.a.a.e.w.c :XyX/.(.(.) (.$.) $.! &.(.&._.`..XiXSXDXFXcXMXcXbXkXZXcXcXcXlXlXlXlXnXzXbXlXlXlXlX",
"l l <.<.1.,.,.>.>.,.1.2.5.8.8.9.8.f.a.a.f.w.Z.jX).^ ) ~ ) ! %.~ ! ) ) ) &.&.) &.%XIXGXSXcXcXcXDXhXlXcXcXZXcXmXcXnXFXnXcXnXnXcXcX",
"l l >.,.<.1.<.,.,.,.1.2.6.8.8.9.f.a.f.f.e.4.wXjX*.{ ) ! r e 0 q d 0 ! ~ a _ r _ { @XPXGXHXZXcXcXFXFXDXDXDXcXZXcXnXnXcXcXcXZXcXlX",
"l l l >.,.,.1.,.1.1.2.2.6.7.8.9.0.0.8.r.3.Z.&XJ.-.0 ^ &.(.).-.J.)./.} s e K ) K d *.GXGXAXVXGXcXFXHXZXDXcXlXcXcXnXmXDXDXDXDXAXlX",
"l l z >.<.,.,.1.1.5.6.5.6.6.6.8.9.r.r.4.4.&X&Xs } + & & = t 9 1 3 : 1 & % ( ( ! ~ } dXPXGXGXZXGXHXHXcXZXcXcXcXnXnXDXDXDXDXDXFXFX",
"l l l z z >.1.2.5.7.r.7.6.5.6.6.7.r.i.c p.).O.U A & : y 1 : , : w B q & + &   a ( } $XCXHXZXHXVXFXFXZXcXZXcXcXcXDXmXmXDXDXFXAXFX",
"l l l l l >.1.3.7.7.0.8.6.6.6.6.e.r.u.H x. .h 2 B S y y y 2 3 8 D A 1 y p % X % - { {.GXGXKXcXDXDXFXZXZXDXcXcXZXnXmXZXDXDXDXDXDX",
"x x l l l >.1.3.5.r.r.6.6.5.6.0.e.g.V.M.V 3 : 2 N  .' 3 1 S B C C B ^ X.:.s & . * * X.LXKXzXcXmXDXFXcXZXDXcXmXcXnXnXDXDXFXDXmXDX",
"z l l l z z ,.3.3.7.7.7.7.0.0.q.y.g./ N G f f G G c.V.U o.y 8 3 ' N.y @ o & d &   ; t xXSXDXDXcXFXFXcXcXZXcXnXnXnXnXnXDXDXDXDXmX",
">.x l l z z ,.1.2.2.2.5.7.6.0.0.r.g.k f 3 3 N H M c. X*X8 y 3 1 : o o O o O ^ q =   * 9XSXDXvXFXHXFXzXcXDXcXcXcXnXnXmXnXvXDXnXZX",
">.<.>.z z z ,.,.1.2.1.2.5.6.6.6.4.Z.u.G > > n M k m.V.gX*XG : > : @ , O : 3 w w =   ; s GXGXAXcXFXFXcXcXDXmXnXcXcXmXmXnXnXnXZXmX",
"x x x z z z ,.3.<.,.,.2.7.8.8.0.w.i.Z.j > : F f M u.T.T.&Xx.< > < B : > > 3 N & X + = X SXZXcXZXAXZXcXZXDXnXnXcXnXDXFXmXnXcXDXDX",
"c k <.x z >.,.,.,.>.,.2.5.8.a.0.q.i.v.f f > f f c u.j.v.x.c.h 2 > Z V f V V N & . . 1   FXzXKXlXDXcXcXZXFXmXcXDXZXcXcXZXDXmXDXcX",
"&Xj <.<.<.<.,.,.>.,.,.2.5.0.0.0.h.r.4.k f G  .F V.M H j.H  .M.Z V N F F F V o.&   . ; X JXnXnXnXmXcXcXcXFXFXcXcXDXDXmXZXDXDXDXDX",
"gXc.k z >.,.,.1.,.4.,.2.6.8.9.a.a.e.i.k k j h x.H V.x.H F h 2 ..3 > F F F N ..1 +   .   LXDXnXnXcXlXlXcXFXFXcXcXDXmXZXmXDXDXDXDX",
"bXAXv.k z <.<.1.,.3.,.2.6.9.9.9.a.0.y.l c j j G V G F G S W A S D > > G V D U @ . % ; + LXcXlXlXlXbXcXZXDXDXZXDXDXDXFXFXFXDXDXDX",
"AXvX*Xj c z <.1.2.5.2.7.s.s.s.s.s.e.t.l x k F H M. .V.N  .c.^ G B.B V B V 2 ..7 . ; i s hXFXxXSXnXZXvXDXFXcXcXZXZXDXDXFXDXDXFXmX",
"bXAXHX:Xk x <.,.2.5.7.e.h.s.s.s.s.7.w.4.4.w.4.u.c.c.c.f M.V.).o.o. XB N Z C =.s } #X9X1 kXcXzXnXFXDXcXZXFXDXlXcXmXmXDXFXFXFXDXDX",
"AXvXZXbXc.c x 1.2.5.7.d.s.q.0.s.9.0.r.w.e.r.y.C.v.F M.D / ].c.X.c.o. XG B C ;.GXVXLX-.7 [.lXnXnXDXnXcXDXFXDXcXcXcXZXmXDXFXDXFXFX",
"vXHXLXZXbXv.k <.2.7.2.h.q.q.a.s.h.0.7.3.f.f.e.4.u.M.M./ B M.).S y 2 3 ' 2 [ XXxXDXSXA s aXzXKXSXDXnXDXDXFXcXlXcXcXnXDXDXFXFXFXFX",
"AXHXGXSXHXwXc 4.<.3.r.i.q.0.9.s.s.r.w.2.9.f.f.y.:XV.V.F  .c.^ ^ B 3 3 o.X.=.].GXDXKX$ = ZXKXFXKXcXcXnXFXFXcXlXcXcXDXnXcXDXDXDXFX",
"AXCXKXJXDXFX&Xk <.<.w.h.d.8.9.0.0.r.4.,.8.0.a.e.Z.m.x.x.B.M.M. .D 3 w : B.1 '.xXLXpX$ 7 GXzXJXFXcXcXcXFXFXcXlXcXcXcXcXcXnXDXvXFX",
"KXVXJXHXHXFXvXu.x 3.y.r.q.9.a.s.r.7.t.z 5.q.e.w.T.=Xn > M.M.M./ S D 3 : O A N.CXVX+.4 [.HXFXLXcXzXzXcXFXDXcXlXlXcXcXcXcXnXcXnXDX",
"FXDXDXLXHXHXAX;Xc 4.y.e.0.6.9.8.0.7.g.,.,.w.w.l :XV.x.Z h G V N 2 : : & p B.*.=.DX# ; aXGXHXFXFXcXlXcXnXnXcXlXcXcXcXnXcXcXcXcXmX",
"mXvXmXLXFXJXHXAX&X<.y.e.7.q.s.q.8.7.g.i.c p.4.k v.L.).V c.M.> 3 3 O o 3 3 1 :.& ` u u KXDXVXHXZXcXlXnXmXnXnXcXnXlXcXcXcXcXlXcXmX",
"vXbXJXDXHXZXHXvXvXV.w.g.z.z.z.d.6.7.z.i.x M F H f M.V.>  .c.G > : o O : 1 ^ q :.. 4 S.SXGXHXcXAXcXcXnXFXnXnXlXlXcXnXcXcXvXlXcXmX",
"vXvXnXKXAXAXHXHXAXgXj.C.C.A.A.z.0.q.i.t.p.H c. .N N f / / c.B.2 B , 3 & & y o p 4 K +.}.SXGXHXcXcXzXcXnXnXbXlXlXnXnXcXmXnXcXcXFX",
"mXmXnXSXHXHXAXAXvXvX;Xv.l.Q.A.Q.t.3.4.p.M R M.C F h h 3 S N S B 2 & w & B w o . +.K ( ] aXdXZXFXcXzXlXlXcXlXbXcXnXcXcXcXmXnXvXmX",
"mXKXzXSXFXFXFXFXFXmXgX;Xv.V.m.=Xv.Z.Z.j.F / B.D 3 3 : : : : O.3 2 o A + D +   X # S.s ( } >X9XSXSXKXSX@XJ.AXcXbXMXcXcXGXZXcXbXFX",
"FXnXzXnXSXJXmXJXnXmXcXbXL.Z.T.wXwXT.Q.x.H jXAXB.AXS bXB fX& X.bXhXAX].uXPXfXaX-Xu 4 *.J a }.S.aXxXzXGXaX*.HXkXbXMXMXcXzXFXZXcXvX",
"nXnXnXmXnXlXFXFXKXSXVXbX;X X*XgX=XT.=Xc./ jX{.OXpX=.LXp hXuX' #XHXAX{.N.hXt N.LX7 7 *.a ( +.;..X.X#XVXLX| GXlXcXcXvXFXZXSXFXbXnX",
"nXlXlXmXnXFXJXmXVXxXdXoXOX-XjXNX5X&X&XH D jXhXuXhX|.LXA hX& ' uXGXPX}./.dXA s #X4 t } '.( K @X.X$X9XpXdXs LXGXkXJXDXDXKXFXnXnXnX",
"nXnXnXmXMXFX$X[.{.$XdX>X9X[.[.4XqX*XW G S N.=.=.X.*.X.@.-.p s -.` s /.q -.p p :.i t A } } ( +.$XJ.|.9X>Xu %XfXFXhXzXHXZXKXzXDXzX",
"zXnXmXmXKXkXXX;.'.[.[.] J.9 9 9X4XP.x.B h 3 @XuXOX} @X|.{.- pX;.X pX% yX^ yX/.^ 1 $ i s ;.{ ( ] K.[..X9X5 aX>X>XAXAXzXJXzXnXnXnX",
"nXcXcXnXKXkX@XI 7 -.( J K u 5 9 L. XN.).^ y {.].OX{.=.} ).OX).-.t ;.{.'.~ q OX:.7 = i s 5 _.$.[ U J.S..X4 +.S.dX@.AXZXFXFXcXFXnX",
"MXmXnXKX>XaXXX4 ( J 5 J # e # ;.[.oXhXjXN.OXfX).| #X@.i @XuXOXq y |.p ).^ yXp q # -X$X{.; u -.; $ #.#.J.e K I S.X.{.HXAXZXcXmXcX",
"cXmXkXdXS.S.S.u +.e # u # a * %.'.fX~ {.OX@X= pX@XdXX.s VXp p IX@ HX| LX{.OXpX*.X PX; J.{.* } S.$ ..;.u u r a ;.s *.dXKXnXzXFXvX",
"mXcXkX>XJ.K `.K J #   5 * e 0 ) /.'.'.-.sX/.` ^ sXCX*.A hX1 & AX= xXCX].PX* pXBX% CXaXVXJ #   @Xs i } u e u * ( 4 ] dX9XKXFXZXDX",
"cXHXdX;.S.K ] K 5 # . . e % a * e PX/.PX%XCX}.LX*.GXXX].hX).@X@Xy [ {.t LXdX$XsX/.PXt SXe   * 7 $X- s u _ u * J # +.] .XIXDXcXFX",
"HXAX.X+.K Y K K 4   .   u s d s d p &.~ /.X.*.p s [ | [ s A D q 3 p p 7 u ` % X | ` & t s   + 7 I N.( ] 5 4 $ i $ I 5 S.[.SXFXcX",
"LXLXJ.@.5 m 9 9 $ , o ` | } [ ' i y s u d }.N...A [ :.^ 8 O : O ^ 2 9 ;.i , @ X   o O 2 8 @ , @ o K.[ I , C O b 9 9 5 J +..XzXKX",
"CX9X..b.Q Q D.S.#.o.#.*XB.b.c.n.b.Q K u y #.H.K.K...=.S Z Q n.n.R ..F.#.F.Y 6 : , x.R W : E Y Y #.F.L.R < h n.*XP.Q 9 i i 4 dXzX",
"ZXoXE H.G.,X8X2X1XqXF.n.<X1XU.R.R.5XoXm 6 ,X2X2X4X#.o.E n.I.3X!.k.*XtX7X7X7XP.F.: =XH.H.v 5XqX*X1X7X0Xn.j.T.W.=X*X*XY 7 7 ] S.JX",
"VXK.O.Y E.Y.Y.!.1XW.v 4X2X8XE.R.1X3X!.4X6 G.!.~.1XG.E Q !.W.!.!.T 1X7XeXE.7X5XeXM T.m.H.v 5X7XE.,XG.*Xk.W.W.W.M P L.8 7 s ] *.@X",
"XXoX$ $ < < T !.=XM E.3X2XT ;.F.L G.!.~.D.P.!.!.8X4XQ Q 3X!.!.8XQ P.tXtX, , qX5Xv Y.Y.^.v W.!.< < , o < U.W.W.f M > s a s 7 +.*.",
"|.& s # 9 6 3X!.*X< 1X2X2X, +./.S.T !.8X~.!.2X~.~.2XD.E.2XU.!.8XF.R.8X8XQ *XeXeX< I.W.W.M W.W.Y.T.*X< , j.E.U.T.L.R 7 q J u +.+.",
"}.S.4 4 , L.!.5Xm , 5X8XP., - $.@.S.oX7X4X,X8X~.D.8X!.8X7XL 1XeXF.P.7X7XrXrXtXF.P Y.3XY.P 3X3XW.1X0XR , < T.=X!.W.W.T 8 K J ] ] ",
"_.S.I 5 m qX2XU.6 6 4X7X7X$ * - 4 S.tX0X<X9X7X~.m tX7X8X4XP eX5XD.P.4X8X$ Q eXeXP E.!.Y.P 3X8XP T T C O 6 < > l.!.U.E.6 9 J J J ",
"}.].E Z G.Y.^.P 6 6 G.7X~.P.5 # 9 <XtXtXE 4XtX4X9 ,XtX7XF.T rXtXk.~.tX7X, 6 eXtXP ~.7XE.L 3X8X< < L X @ 6 E m l.^.U.E., 9 u J K ",
"o.K.b c.=Xl.W.W.5XtXT ,XtXtXwX9X9XtXtX>X..9XMX0X9 E 0XtX#.E NXrXF.<XtX7X7XNXtXeXL E.7X1Xg 5X5XR.R.<X0XF.*X<XL.G.l.U.G., t u ( K ",
"x.c.x.T.=XW.W.=X1XqXP.< eXMXrXNX0X<XK.1 [ 9XvX9XJ 7 wXoXC #.9XMXF.*XtXtXqX0X*XW m E.eXR.P qX5XeXtXeX0XL.rX0XqX=XW.Y.> , a a ( K ",
"v.M.f g g f v g < , 6 ,   9 F.K.E 6 @ 7 i t 4 u J u 7 4 9 7 9 9 , , 6 6 , 6 : E n.m < g < < < : , , , 6 Y m n.k.P Z : d d r ( u ",
"G h B ..C 2 9 8 $ $ + + & .     9 9 4 a ; 7 } %._ _ a s s 0 :.~ I i 8 i i 9 : y A C U C B , @ o O 1 & & 1 8 O 3 , , X.e e ! a r ",
"V.h A i @.t 7 u e ; % % d X   ; 5 u u s 4 e e $.%.) ! _ a r % %X| s p s i i + p ^ A A p i t - + & @ + q & - w = $ # $ d t a e r ",
"H V b C y @X4 a a e + o 7 e 4 * u 5 s t K u u 4 ) $.$.) ! ~ ~ ! @X{ ^ A A y y q B ' ^ y p y - o 1 o X % & ; & & = 7 7 '.7 - a ( ",
"H V b b 1 @ *.e ; -   o s 7 t s i u 4 t u i u u 0 { $.{ ( { d 0 { @X` p A C 1 q p 2 1 , 2 1 + @ : @ +   - - X + # 7 4 7 } 7 ( s ",
"N F B b A I t %.e     7 i u i K u t a ~ s u K u r * _ $.) _ r a % ~ {.` y C i 3 w y y 1 & + @ @ + - = % 4 ; & . $ $ - p s ` K 4 ",
"3 B B 8 3 2 1 s -   X i I u 7 y A i y t 1 $ $ 7 e e * r $.&._ ! * % ` N.i C 7 y w & 3 7 1 1 = = $ 7 1 + - - ; + # ; q = s -.* u ",
"B.1 2 y 1 2 : O } +   5 ] i 8 C Z W M.O.Y Z 1 O     5 * ) ) ) r d   % ` ;.8 8 1 q 1 1 , 1 = & = & 3 & o q y 1 = # + 0 0 ( e ] ( ",
"=.D ' 3 : 3 2 O & ).1 I I ' #.x.M.H R W W Z B , $ #     % ! ! ! ! %   $ @.N.1 y y t = = 1 & X ; + & & & y i 8 , @ + % 0 e K $X( "
};
