/* XPM */
static char *_7c740ced9f744bfb6d929cdb5f270b49YVujwCYyxgK8C5M[] = {
/* columns rows colors chars-per-pixel */
"64 64 256 2 ",
"   c #030808",
".  c #180303",
"X  c #081706",
"o  c #01011C",
"O  c #020716",
"+  c #05191B",
"@  c #131B17",
"#  c #190E0E",
"$  c #2D0E0D",
"%  c #1A2509",
"&  c #182419",
"*  c #0B2F1A",
"=  c #272819",
"-  c #2F280D",
";  c #06042A",
":  c #051927",
">  c #161927",
",  c #070437",
"<  c #140639",
"1  c #041C34",
"2  c #091C38",
"3  c #171A38",
"4  c #16042B",
"5  c #2A1633",
"6  c #0B232D",
"7  c #07262B",
"8  c #172527",
"9  c #0C2434",
"0  c #0C2A34",
"q  c #04243A",
"w  c #0E263D",
"e  c #052B3B",
"r  c #0C293C",
"t  c #052834",
"y  c #122435",
"u  c #12253C",
"i  c #132B3B",
"p  c #182836",
"a  c #07313A",
"s  c #16323A",
"d  c #0F322B",
"f  c #332827",
"g  c #26253B",
"h  c #2D322F",
"j  c #480200",
"k  c #5B1E09",
"l  c #730702",
"z  c #522B11",
"x  c #4E302F",
"c  c #74352F",
"v  c #611929",
"b  c #394324",
"n  c #4D4D2F",
"m  c #6C4C2C",
"M  c #685B27",
"N  c #060646",
"B  c #180945",
"V  c #061A46",
"C  c #171A45",
"Z  c #121355",
"A  c #261748",
"S  c #2C1956",
"D  c #30144E",
"F  c #0D2642",
"G  c #0C2A42",
"H  c #092846",
"J  c #122443",
"K  c #132A43",
"L  c #12234C",
"P  c #192A47",
"I  c #18334A",
"U  c #182955",
"Y  c #1A3256",
"T  c #092A4F",
"R  c #272549",
"E  c #372D4A",
"W  c #253548",
"Q  c #392758",
"!  c #363855",
"~  c #31324F",
"^  c #0F2F6E",
"/  c #2E2F6C",
"(  c #1D1B64",
")  c #451B50",
"_  c #4B3857",
"`  c #58395A",
"'  c #4B2C51",
"]  c #663C5B",
"[  c #4E386B",
"{  c #683A68",
"}  c #354B51",
"|  c #3A4766",
" . c #2F4D74",
".. c #285A79",
"X. c #504E56",
"o. c #6C4955",
"O. c #576A50",
"+. c #697457",
"@. c #726D50",
"#. c #5A4466",
"$. c #4F546D",
"%. c #674567",
"&. c #6F5171",
"*. c #576772",
"=. c #78667A",
"-. c #6E726A",
";. c #8E0E01",
":. c #B30B03",
">. c #902E11",
",. c #B12A0A",
"<. c #863A33",
"1. c #D10F0C",
"2. c #D83808",
"3. c #D23013",
"4. c #EC340E",
"5. c #CF3325",
"6. c #EB251B",
"7. c #894710",
"8. c #B74D13",
"9. c #AB482E",
"0. c #B86435",
"q. c #915531",
"w. c #D05111",
"e. c #EC4611",
"r. c #D15030",
"t. c #F14F2D",
"y. c #CE7333",
"u. c #F06F30",
"i. c #DB6E1A",
"p. c #88704E",
"a. c #835366",
"s. c #867074",
"d. c #9E5D57",
"f. c #E46947",
"g. c #77866C",
"h. c #69804A",
"j. c #EF9516",
"k. c #F5B718",
"l. c #ECAD11",
"z. c #D49137",
"x. c #F2B22D",
"c. c #DE9628",
"v. c #F5C72F",
"b. c #FFCB17",
"n. c #8B8D70",
"m. c #AFAF75",
"M. c #A89C63",
"N. c #CF874C",
"B. c #EA9354",
"V. c #F0B152",
"C. c #CFAE74",
"Z. c #F4AA6E",
"A. c #D7A15F",
"S. c #FCD64D",
"D. c #FED16F",
"F. c #FFEF76",
"G. c #EFD75D",
"H. c #B7C37B",
"J. c #1F3587",
"K. c #29508F",
"L. c #356A93",
"P. c #2E56AC",
"I. c #3568B8",
"U. c #346FAE",
"Y. c #1B5891",
"T. c #4A5189",
"R. c #527194",
"E. c #746B8B",
"W. c #4975B4",
"Q. c #5F6094",
"!. c #3B76CA",
"~. c #467ACE",
"^. c #8D7794",
"/. c #CF7893",
"(. c #3982A6",
"). c #738B8F",
"_. c #498CB7",
"`. c #718FAE",
"'. c #58A4BB",
"]. c #66ACB7",
"[. c #54899B",
"{. c #579CC7",
"}. c #4F8FCF",
"|. c #6A93CB",
" X c #57A5CD",
".X c #70AECE",
"XX c #6FB1E7",
"oX c #619BE3",
"OX c #78C7F1",
"+X c #75C3DA",
"@X c #8F9190",
"#X c #B39588",
"$X c #AEAE8E",
"%X c #8D8BAD",
"&X c #AE9AAB",
"*X c #8EACB6",
"=X c #B1AEB3",
"-X c #95A68A",
";X c #CFB492",
":X c #E4AAA0",
">X c #BAC593",
",X c #BCCCA6",
"<X c #A1DEB9",
"1X c #D0D099",
"2X c #FFD798",
"3X c #F2CB8A",
"4X c #FEF589",
"5X c #FDE898",
"6X c #FAF79A",
"7X c #F1EE90",
"8X c #D0D3AE",
"9X c #ECD6AF",
"0X c #D5E9B8",
"qX c #FCE9A6",
"wX c #FCF9A9",
"eX c #FAEAB7",
"rX c #FFFCB3",
"tX c #FEFDBB",
"yX c #F8F7B7",
"uX c #E9F2B0",
"iX c #D9E79D",
"pX c #95B9CF",
"aX c #98AED8",
"sX c #92D1D3",
"dX c #ACD3D2",
"fX c #95E4D5",
"gX c #B3E8D2",
"hX c #89CAFC",
"jX c #89D6F8",
"kX c #95D3F2",
"lX c #A9DCE9",
"zX c #AED8EF",
"xX c #9BE5FE",
"cX c #97E8E7",
"vX c #A5E6E7",
"bX c #A8E7FB",
"nX c #B4EDF2",
"mX c #C9D3CC",
"MX c #F4D3CA",
"NX c #CAE8C8",
"BX c #C7EBD7",
"VX c #D7EAD7",
"CX c #D4F1D2",
"ZX c #FBEAC4",
"AX c #EAF8C6",
"SX c #F9FDC8",
"DX c #E7F8D7",
"FX c #FDFCD6",
"GX c #EDEACB",
"HX c #CFCFED",
"JX c #C7EAE8",
"KX c #D0F4F1",
"LX c #F7FDE5",
"PX c #EAF6ED",
"IX c #EEDDE7",
"UX c #C3B8C6",
/* pixels */
"r r u u J L J u d 0 r H H L s 8 y 7 * * s r B Q 2 K a e F 2 0 t 0 y p p y p p 6 0 : s i 0 u i t 7 d i s 0 r 9 F F F F w w r w 0 ",
"w w u u J J u i 7 7 G I U V : 8 > h * * + p U C J 9 6 e Y K 0 6 y 9 i 0 9 2 i P P F w 1 9 6 0 0 s : : 6 9 w J K F F F w w u r u ",
"w w r u J L K 0 s 7 9 H L J s = $XeX9XeX+.@ P L H I T e H H u u i 9 7 0 0 r w F N Y V Y y d X -X-.d s i i w w 9 J F K w u r w 0 ",
"r r u u J K J u 6 0 G K H u :   :X3Xy.A.m # w L T 1 t t e q C U G e t t a e F H Y V U J > & g.AX).: 0 0 w w F w F F w w w w r u ",
"F w u u J J u r 0 7 F I L 3 } @.;XB.w.w.,.c > 2 u 1 s a t K T Z H I G t t a H Y H L w > h O.uXSX@X7 9 6 r r F F F J F w w u r w ",
"w r u r J K J u s t 1 G K 1 *.ZXZ.r.:.e.r.9.j f h @ & 7 7 I Z T H T H q G G t t 0 s + & n.SXwXSXg.t s u K 9 w w F F w w r w u 0 ",
"F F u u F K J r 7 0 q L K + X.ZX0.;.;.2.2.5.r.MXp.- X % d a H U H F 2 V I r : d * % 0X1X7XeX6X;Xh 7 9 0 w w r J r J J w r w w r ",
"r w r u J J F r 7 I w 2 P > O.ZXf.;.l r.w.t.6.f.N.M.m.M X d 9 1 3 p p p 0 + h +.g.M.yXwXrX5XwXM + a 0 i w w 9 F r F w w w u 0 w ",
"F w w r w J F r 0 a w F P > n ZXr.;.j j 9.6.6.e.t.B.wXM.% = = = = = f @ = & = 0XSXuXwX6XqXwXC.M & w r w r w w w w w F w w r u r ",
"F w 0 u u J F r t 6 F K : @ +.ZXr.;.$ . l 5.4.4.e.e.Z.2X3XeX9X0X9X8X0X9X9X0X1XSXwXqX6XwXwX5XC.- 8 0 w i w w w w w J w i w w w w ",
"G F r 0 r F F r 9 I F u W @ n eXf.l . . $ ;.3.4.2.2.4.f.Z.eXtXrXrXwXrXrXyXtXtXeXM.M eXqXeXqXA.- @ u w F w w F u w w w w w J r u ",
"G F u r u F F r q r K 2 8 % @.eXy.;.. . $ l r.4.4.e.4.t.y.2X6X6XwX6XwXwX6XqXtXtX1Xp.p.M.;XZXC.- 8 w w i w w w w w w w F w w w r ",
"F F u r r u F r r 1 F W y X M wX0.;.. . j l ;.2.e.4.4.4.y.wX6XyXyXwXuXwXyXuXyXyXSX9Xp.m @.;XC.$ 8 w w r w w w w u w w w w w w F ",
"H G u r w w F F r w L P g X M qXr.,.j . l l l ,.e.2.4.2.y.7XuXAX0XAXAX0XSXSXSXZXeXeXSXp.m @.$Xh 3 w w F w w w w r F w w w w r u ",
"H F 0 0 w r F F e r I : O -.1X5X5.5.c $ ;.5.2.4.3.e.u.u.A.iX0XNXgXNXCXNXNXDXDXSXyXtXwXeX@.x n.5 y w F J w w w w w r r u w w w F ",
"H G w u w w G F q 6 0 g O.8XyX2Xt.5.,.j ;.t.2.e.t.u.A.3XiX<XgXnXnXgXgXBXBXVXVXuXSXyXeXSX9Xo.x R 3 F F r u w w u J J J F F u r r ",
"H G T u y 0 2 V G 7 * b SXyXwX2X5.t.2.:.2.e.2.w.y.1X8X0XgXgXnXgXnXgX<XgXgXnXgXCXCXDXDXAXSX8X& g P 2 H K 6 y u J J C L L H w w 0 ",
"H H 2 2 0 p W Y : O.uXiXtX7X7XD.w.4.e.e.4.w.w.z.3XiX<XgXcXcXnXnXnXfX<XgXvXvXfXKXBXdXJXVXAXLX=XO P I G : y s p u J L L L F w 0 t ",
"F F F I u 9 2 2 + X.AXwX6X4XF.v.x.j.j.j.j.c.V.C.1XgXgXvXnXfXcXcXvXbXnXnXvXvXcX].fXvX[.pXKXBXDX@X9 q r i W 9 : P J L J J u r 0 0 ",
"H K r i 9 K R p O.n.yXwX6XF.F.b.l.b.k.k.V.G.iX0XdXgXfXsXfXfX+XcXkXhXXX.XnXcXfX'.].bX|.'.sXKXDXNX: 9 r q w K w i J J J F w w r r ",
"r u 0 9 9 F 2 @ ,XFXSX6X4XS.b.b.l.k.v.z.M.$XgXdXbXnXvXvXnXvXcXOXOXOXW.L.dXdXvXKXY.XXKX.XQ.KXBXPX} 7 9 K q r w F w r w 0 r 0 u u ",
"w u 0 0 P w : & >XtX5XF.F.v.l.l.k.l.z.q.- ).KXbXxXbXzXlXvXvX+X]._..X .O   +.dXKXL.K.hXzX^ W.DXCXPX} : K P F H H r r 0 0 y u u u ",
"P K 7 7 K K X.$XiXwXF.G.v.l.v.x.x.N.m f %XbXxXbXhX.X|.P.K.T +   # f # # . $ n $.E.|.W.zXP.W.mXO.W + 0 K 2 H H T r 0 0 0 p u J L ",
"2 i 0 0 H 9 *.LXrX4XF.S.l.k.V.y.0.k o.aXaXaX.X|.R.^ ^ K.P.R.$.*.n.p.x z 3Xz . > Q.|.L.zX^ %X=X= n s 6 9 H Y H 2 e r 0 9 u J J L ",
"u w 9 0 K : -.SX6XF.S.v.k.c.z.9.c c s.VX).L. .^ ^ ^ ^ P.OXjXjXvXIXPXk z Z.m .   w `.pXKX`.IX-.n PX& 8 y w U H H q r 0 r i J C U ",
"u w r 0 0 7 +.SX4XF.l.l.k.c.q.m m VXPXmXdXR.T K.K.oX!._.(. XjXjXaXHX@.n m M #   O K *XKXPXGX$X@.NX@ 8 p u P V G K r w 9 w J L U ",
"w u r e G 7 +.tXF.F.l.k.x.z.c #XAX0XmX*.$./ ^ T .XhXU.}.U.XXxXxX{.Y.sXgXVXCXmX@XX.| *XBXLXFXyXSX9XO.@ & > 6 p 1 r 9 w w G L V L ",
"2 w r e G + @.rXD.v.l.l.i.7.v ;XAXDXKX/ K.^ [.].OX XI.I.!.(.+XOXjXXX'.+XnXgXJXKXJXBXnXBXNXAXuXSXFXLXO.= h 8 g y 9 u w F L L H L ",
"J F r t a + @.rXS.l.l.c.k 0.p.;XGX@X%X/ / W.bXXXXXXX!.I.!.Y.U.'.XXxXbXlXfXlXnXfXcXvXKXgXBXDXLXGXAXAXGXLXn.X @ > p P K J r q G K ",
"F F e a a @ @.rXv.l.c.i.<.eXeXqXGXx R / ( R.nX{.+XxX!.P.!.I.U.U.Y.XXnXkXnXbXvXvXvXfXgXgXNXdXVXDXDXSXSXyX0X8XO.+ > 2 3 K F q e a ",
"F q e t a + @.wXx.k.c.0.c MXqX7X9Xn ! T.W.}.kXL..XxX(.U.P.P.I.I.U.K.W.}.W.~.[.*XCXCXNXDXCXNXNXVXAXuXyXAXSXFX,Xo.8 3 u J K a e 7 ",
"w w r t K 7 @.rXx.l.c.0.<.s.C.6XiX$X)...W.XXzX}.'.+X'._.!.}.!.!._.}.~.~.~.~.'.sXCXDXDXDXDXAXCXgX8X8X0XFX;X$XZX8Xo.' g 3 u t a a ",
"y y u w G + @.wXx.j.u.u.y.c p.$XiXtXCX} |.oXXXoXI._.jXXXxXkXOXhXkXhXhXhXhXkXjXxXlXKXKXPXDXDXDXBXsX].*X,X] a././.:X/.a.v 4 0 e e ",
"0 0 u F T : @.rXx.j.e.u.y.c v f ;X8X0XPX$. .|.W.I.I.U.!. X X X'._.'._. X}.oXXX X+XfXgXVXDXIXCXKXnX.X[.*.o $ v l v v v 5 < 3 a G ",
"t r u J K 7 @.rX7XD.u.u.u.9.c v 5 f -.LXmX).K.K.P.P.!.!.I.{.hXxX].(._.U.(. X}.{.'..XdXJXKXJXBXKXKXlX*X).+ . # . $ . . > g u e G ",
"H G u u P + +.tX2XF.i.t.u.,.9.' ) 4 4 } LX0X`.T.K.P.P.P.P.W..X'.+XsXsXaX X(._._._. XpXzXJXJXJXKXnXzXdX`.y O O   4 o ; 8 p u w w ",
"H H r w K : +.SXwX4X,.2.t.5.9.c ) D < ; -.,XPX*.$.K.P.P.J.P.P.L.R.pXKXKXbXW.....L.L.L.`.dXzXJXlXnXzXdXpXE.} + + O + i i r 9 w F ",
"H G u u r : +.uX7X3X,.4.t.3.9.o.x ) D B ; -.dXPXE./ / J.J.J.^ / ^  .%XdXKXkXY...^ T T ^ E.aXdXsXdXaX*XpX[.} O O O 9 K r r e G e ",
"F J u u G * h.uX6X5X3.6.6.4.B.;Xo.Q D B < ; @ VXJXE.S ( ( Z N N L R C Q.aXzXkXQ.( Z N , V V : + : : : 1 1 o o ; R P u w r G a e ",
"y u u w H 7 h.uX6X2X1.1.1.4.Z.eXs.&.E E < < 4 =.mX&X' / Z Z N N , < A S Q %X%X$./ ( ( Z N ; o O O O O O o o ; 5 R 3 3 P K q e G ",
"d y J J J : +.wX7X6X3.1.1.2.V.5Xf %XmXx p , 3 o E.UX=.%.~ A B , < , ; < R 3 < S / T.[ / / , o 3 4 > o o o 4 3 C C A C J u u u u ",
"7 7 u P R + @.wX6X5X>.:.1.:.V.5X$ h ,X$XX.> ; , R _ =.&X^.' D Z , N , ; ; ; , ; B B Q.HXUXQ.3 O O O o o u / $.C P J J J J u u u ",
"d d t C Q # @.wX7X4Xf.f.u.,.B.3XM f n.8X-.} ~ B B 4 o.IX&XE.D D B N , , ; ; < < B S [ %X%X*.p y ! ! } ! ! | Y 1 F L F F F u J p ",
"7 a r 2 A @ @.wX7XwXqXeX9Xw.i.Z.2XZX- -.FXX.3 C < ; _ UX&X^.' Q U N , , , ; < B ) Q.S , | I : ~ $.| | | | w 2 I F F F G w w u J ",
"7 t i u P > @.eX6XiX6X2XqX8.,.8.V.;Xx 4 @XVX[ R R 4 ; A &X%XE.S Q B V , , V A 5 [ #.W 1 W K q w 6 1 1 2 2 1 w w w F F F r G e e ",
"e q 0 u J > -.FXrXwX6X5XqX8.:.,.y.3XM.s.x =X&X! 3 R < ; #.Q &.E.! B N , , B B D [ #._ W 2 q P 2 G G G r F K P F r r r r r r G r ",
"U 2 r t e 7 X.$XH.rX6X5X5Xw.:.1.9.N.2X9Xx =.HXE.R A A B < 4 E =._ A < , , < < ) ` &.%.! y q P L C w K L F 2 9 r w r r w u u u u ",
"C u i t a t 8   g.yX7X5X7X8.5.,.>.<.7.C.MX5 X.IXE.A Q S Z , < ; &.[ Q < , D ) ` { { X.X.g u I C K F C w K F G w r r w u u u J u ",
"C A i u L G w y = % m.tX5XD.3X8.>.c q.3XZX$Xs.s.-.) ) D S ( , , N [ [ A D 5 5 { %.%.o.#.X.W r q F F u J w w r r w r F r u u u u ",
"u u u J F F F u s X -XFXeXwXwXV.A.y.k z p.FX$Xo.s.&.{ ) S S N N Z B S Q D D ` %.%.%.#._ R 3 w K w w w w w F J w F w u w w F r F ",
"u u u J H F F F s 8 -.$Xm.3XrXwXqXC.z - = &X@X=.a.a.a.{ ) ) B Z B N B Q S ' #.%.] &.%._ R 2 q r w w w w w w F w u w F w F w w w ",
"p w i F G L G F 1 s & X % -XeXyX5XrXuXFX=.@ g =.a.a.a.a.] ) D D B B , , Q #.#.%.] %.#.E R p w q w w F w w u w r w w w w u r u F ",
"0 w r G F H H F 1 y i h 8 8 = $X6X7X7XuX0X-X^.^.=.&.a.a.=.{ ) D 4 B ; 4 ! Q.{ %.%.#.' 5 3 J P G w w w w w u F u w u r F w w F w ",
"r 0 e G H G F F Y q i : : h   >XwX7X6XuXZXFX@.= _ %.=.&.&.&.%.) D 4 < Q #.&.%.#.%.%._ g 3 3 G K F F w w r F w w w F w u w w u w ",
"e e w e w F F F J 1 P K r a : @X8XH.H.m.iXFXO.f 5 g %.=.%.&.&.%.{ 4 E &.#.#.&.' _ [ ! ~ J u H q w w r F w w w w w w w w w F r F ",
"r r r w w F F J 2 Y 1 w q H G t & % % X @.ZXGXFXn # ~ &.&.%.&.%.%.5 ) &.] #.%.' 5 5 g u u w H H F w u w w J w w w F w w w u w w ",
"r F F J J p u J p J u w F G G e r y P p g f 8XFX8X$XO.O { Q.&.{ %.] { { a.] ] ] #.! P 3 u G G e F w w w r u F w u r F w w F w w ",
"F F u u J J 3 u J u u w r r H G G H L C R @ +.+.uXDX-Xh g ' %.%.] { o.] { %.%.[ _ ~ P u F G H H F r J w F w w w w F i w w w u w ",
"K J J J u p u u p u p w r e e e a q H G u : h X -X>XSX8X- $ ] o.o.o.{ o.%.] #.X.E R u w F G G G r w w w w w w w w w F w w w F w ",
"u J u u J J u u u u u u 0 r 0 e e e a a t y 9 7 * X m.tX9XZX@.x x ' ] ] %.` _ E g u u r G w G G F u w F w u u F u w w w u w w w ",
"w u w u w u u u u w u w w r 0 w H H a d 7 a G P g X $XyXwXrXM.m.=X=X&XX.o.X.$.g u u w G G r w u r w w w u F w w w F w F F w w F ",
"u w 0 w w w w w r w w w w w w r F w t t t G F F 9 8 g.>X>Xm.,X,X8X=X@XE _ E X.g u r r r F J u J u F w w w w w w w u w r w w r u ",
"y 9 y r r r e G F F G w w w w u p p C H I H r 9 y s : ; p : + + + + & > g g u 1 u r e r r u 3 u u F w u w w w i w w w u w w w F ",
"0 0 0 0 w r G r H G G F F F w p > p C V U 1 i 0 p > U U Z T K a 7 8 8 8 + p y p r e q e i K p u u w r F w w F F w w w w F w u w "
};
